<svg width="834" height="800" viewBox="0 0 834 800" fill="none" xmlns="http://www.w3.org/2000/svg">
<g clip-path="url(#clip0_1782_2360)">
<g clip-path="url(#clip1_1782_2360)">
<mask id="mask0_1782_2360" style="mask-type:alpha" maskUnits="userSpaceOnUse" x="-398" y="-1" width="1596" height="824">
<path d="M-246.015 -0.434544V822.303M-201.408 -0.43457V822.303M-156.802 -0.43457V822.303M-112.195 -0.43457V822.303M-67.5888 -0.434544V822.303M-22.9833 -0.434544V822.303M21.6232 -0.43457V822.303M66.2296 -0.43457V822.303M110.836 -0.43457V822.303M155.442 -0.434544V822.303M200.048 -0.434544V822.303M244.654 -0.43457V822.303M289.261 -0.43457V822.303M333.867 -0.434544V822.303M378.474 -0.434544V822.303M423.079 -0.434544V822.303M467.686 -0.43457V822.303M512.292 -0.43457V822.303M556.898 -0.434544V822.303M601.296 -0.434544V822.303M645.902 -0.43457V822.303M690.508 -0.43457V822.303M735.115 -0.43457V822.303M779.721 -0.43457V822.303M824.327 -0.43457V822.303M868.933 -0.43457V822.303M913.539 -0.43457V822.303M958.146 -0.43457V822.303M1002.75 -0.43457V822.303M1047.36 -0.43457V822.303M1091.96 -0.43457V822.303M-397.389 714.827H1186.96M-396.604 670.228H1187.74M-395.82 625.628H1188.53M-395.036 581.028H1189.31M-394.252 536.428H1190.1M-393.468 491.828H1190.88M-392.683 447.232H1191.66M-391.899 402.632H1192.45M-391.115 358.032H1193.23M-390.331 313.435H1194.02M-389.547 268.836H1194.8M-388.763 224.236H1195.58M-387.978 179.636H1196.37M-387.194 135.036H1197.15M-387.194 90.4297H1197.15" stroke="url(#paint0_linear_1782_2360)" stroke-opacity="0.4" stroke-width="1.65208"/>
</mask>
<g mask="url(#mask0_1782_2360)">
<rect width="835" height="783" fill="url(#paint1_radial_1782_2360)"/>
</g>
<path d="M111 510.059V410.934" stroke="url(#paint2_linear_1782_2360)" stroke-width="2" stroke-linecap="round"/>
<path d="M191.579 670.312H264.271" stroke="url(#paint3_linear_1782_2360)" stroke-width="1.65208" stroke-linecap="round"/>
<path d="M690.509 474.539L690.509 429.933" stroke="url(#paint4_linear_1782_2360)" stroke-width="1.65" stroke-linecap="round"/>
<path d="M703.429 581L601 581" stroke="url(#paint5_linear_1782_2360)" stroke-width="1.65" stroke-linecap="round"/>
<path d="M646.151 229.562V180H616" stroke="url(#paint6_linear_1782_2360)" stroke-opacity="0.4" stroke-width="2" stroke-linecap="round"/>
<path d="M155 329.102V180.002H254.125" stroke="url(#paint7_linear_1782_2360)" stroke-opacity="0.4" stroke-width="1.65" stroke-linecap="round"/>
<rect x="66.8467" y="313.461" width="43.7802" height="43.7802" fill="url(#paint8_linear_1782_2360)"/>
<rect x="199.84" y="225.075" width="43.7802" height="42.9542" fill="#FAFAFA"/>
<rect x="780" y="403.5" width="42.9542" height="42.9542" fill="url(#paint9_linear_1782_2360)"/>
</g>
</g>
<defs>
<linearGradient id="paint0_linear_1782_2360" x1="-387.194" y1="89.9297" x2="1197.15" y2="89.9297" gradientUnits="userSpaceOnUse">
<stop stop-color="#E5EAF2" stop-opacity="0.32"/>
<stop offset="0.475997" stop-color="#E5EAF2"/>
<stop offset="1" stop-color="#E5EAF2" stop-opacity="0.32"/>
</linearGradient>
<radialGradient id="paint1_radial_1782_2360" cx="0" cy="0" r="1" gradientUnits="userSpaceOnUse" gradientTransform="translate(417.5 391.5) rotate(-90) scale(391.5 417.5)">
<stop offset="0.697599" stop-color="#E5EAF2"/>
<stop offset="1" stop-color="white" stop-opacity="0"/>
</radialGradient>
<linearGradient id="paint2_linear_1782_2360" x1="111.5" y1="410.934" x2="111.5" y2="510.059" gradientUnits="userSpaceOnUse">
<stop stop-color="#E7E7E7"/>
<stop offset="1" stop-color="#E7E7E7" stop-opacity="0"/>
</linearGradient>
<linearGradient id="paint3_linear_1782_2360" x1="264.271" y1="670.812" x2="191.579" y2="670.812" gradientUnits="userSpaceOnUse">
<stop stop-color="#E7E7E7"/>
<stop offset="1" stop-color="#E7E7E7" stop-opacity="0"/>
</linearGradient>
<linearGradient id="paint4_linear_1782_2360" x1="690.009" y1="429.933" x2="690.009" y2="474.539" gradientUnits="userSpaceOnUse">
<stop stop-color="#E7E7E7"/>
<stop offset="1" stop-color="#E7E7E7" stop-opacity="0"/>
</linearGradient>
<linearGradient id="paint5_linear_1782_2360" x1="601" y1="580.5" x2="703.429" y2="580.5" gradientUnits="userSpaceOnUse">
<stop stop-color="#E7E7E7"/>
<stop offset="1" stop-color="#E7E7E7" stop-opacity="0"/>
</linearGradient>
<linearGradient id="paint6_linear_1782_2360" x1="646.564" y1="180" x2="646.564" y2="229.562" gradientUnits="userSpaceOnUse">
<stop stop-color="#E7E7E7"/>
<stop offset="1" stop-color="#E7E7E7" stop-opacity="0"/>
</linearGradient>
<linearGradient id="paint7_linear_1782_2360" x1="204.562" y1="180.002" x2="204.562" y2="329.102" gradientUnits="userSpaceOnUse">
<stop stop-color="#E7E7E7"/>
<stop offset="1" stop-color="#E7E7E7" stop-opacity="0"/>
</linearGradient>
<linearGradient id="paint8_linear_1782_2360" x1="109.801" y1="313.461" x2="66.8467" y2="356.415" gradientUnits="userSpaceOnUse">
<stop stop-color="#FAFAFA"/>
<stop offset="1" stop-color="#FAFAFA" stop-opacity="0"/>
</linearGradient>
<linearGradient id="paint9_linear_1782_2360" x1="780" y1="403.5" x2="822.954" y2="446.454" gradientUnits="userSpaceOnUse">
<stop stop-color="#FAFAFA"/>
<stop offset="1" stop-color="#FAFAFA" stop-opacity="0"/>
</linearGradient>
<clipPath id="clip0_1782_2360">
<rect width="834" height="800" fill="white"/>
</clipPath>
<clipPath id="clip1_1782_2360">
<rect width="1586" height="892.125" fill="white" transform="translate(-347 -30.998)"/>
</clipPath>
</defs>
</svg>
